<svg width="64" height="65" viewBox="0 0 64 65" fill="none" xmlns="http://www.w3.org/2000/svg">
<g id="quote-right">
<path id="Vector" d="M40 13.7604C37.0533 13.7604 34.6667 16.147 34.6667 19.0937V29.7604C34.6667 32.707 37.0533 35.0937 40 35.0937H48.026L39.2292 46.9114C37.9225 48.6688 39.1751 51.1666 41.3698 51.1666C42.2125 51.1666 43.0012 50.771 43.5052 50.0937L54.9479 34.7239C55.6306 33.8039 56 32.6883 56 31.5416V19.0937C56 16.147 53.6133 13.7604 50.6667 13.7604H40ZM13.3333 13.8333C10.3867 13.8333 8 16.22 8 19.1666V29.8333C8 32.78 10.3867 35.1666 13.3333 35.1666H21.3594L12.6146 46.9062C11.3079 48.6662 12.5605 51.1666 14.7552 51.1666C15.5979 51.1666 16.3918 50.771 16.8958 50.0937L28.2812 34.7968C28.9639 33.8768 29.3333 32.7639 29.3333 31.6145V19.1666C29.3333 16.22 26.9467 13.8333 24 13.8333H13.3333Z" fill="#18181B"/>
</g>
</svg>
